<svg xmlns="http://www.w3.org/2000/svg" version="1.1" xmlns:xlink="http://www.w3.org/1999/xlink" xmlns:svgjs="http://svgjs.dev/svgjs" width="1500" height="1500" viewBox="0 0 1500 1500"><rect width="1500" height="1500" fill="#883d1a"></rect><g transform="matrix(0.6666666666666666,0,0,0.6666666666666666,249.39393939393938,438.5856950067477)"><svg viewBox="0 0 396 247" data-background-color="#883d1a" preserveAspectRatio="xMidYMid meet" height="935" width="1500" xmlns="http://www.w3.org/2000/svg" xmlns:xlink="http://www.w3.org/1999/xlink"><g id="tight-bounds" transform="matrix(1,0,0,1,0.2400000000000091,-0.09999999999999432)"><svg viewBox="0 0 395.52 247.2" height="247.2" width="395.52"><g><svg></svg></g><g><svg viewBox="0 0 395.52 247.2" height="247.2" width="395.52"><g transform="matrix(1,0,0,1,75.54432,107.95617755452743)"><svg viewBox="0 0 244.43135999999998 31.287644890945142" height="31.287644890945142" width="244.43135999999998"><g><svg viewBox="0 0 244.43135999999998 31.287644890945142" height="31.287644890945142" width="244.43135999999998"><g><svg viewBox="0 0 244.43135999999998 31.287644890945142" height="31.287644890945142" width="244.43135999999998"><g><svg viewBox="0 0 244.43135999999998 31.287644890945142" height="31.287644890945142" width="244.43135999999998"><g id="textblocktransform"><svg viewBox="0 0 244.43135999999998 31.287644890945142" height="31.287644890945142" width="244.43135999999998" id="textblock"><g><svg viewBox="0 0 244.43135999999998 31.287644890945142" height="31.287644890945142" width="244.43135999999998"><g transform="matrix(1,0,0,1,0,0)"><svg width="244.43135999999998" viewBox="3.25 -28.55 226.93 29.05" height="31.287644890945142" data-palette-color="#ffffff"><path d="M25.65 0L3.25 0 3.25-0.8 6.8-2.45 6.8-25.55 3.25-27.2 3.25-28 15.1-28 15.1-27.2 11.05-25.55 11.05-2.5 21.9-2.5 24.85-9.6 25.65-9.6 25.65 0ZM46.9 0.5L46.9 0.5Q42.8 0.5 39.57-1.38 36.35-3.25 34.5-6.53 32.65-9.8 32.65-14L32.65-14Q32.65-18.2 34.5-21.5 36.35-24.8 39.57-26.68 42.8-28.55 46.9-28.55L46.9-28.55Q51.05-28.55 54.27-26.68 57.5-24.8 59.37-21.5 61.25-18.2 61.25-14L61.25-14Q61.25-9.8 59.37-6.53 57.5-3.25 54.27-1.38 51.05 0.5 46.9 0.5ZM47.75-2L47.75-2Q52.05-2 54.5-4.95 56.95-7.9 56.95-12.75L56.95-12.75Q56.95-16.7 55.6-19.7 54.25-22.7 51.82-24.38 49.4-26.05 46.25-26.05L46.25-26.05Q41.95-26.05 39.45-23.15 36.95-20.25 36.95-15.4L36.95-15.4Q36.95-11.4 38.32-8.38 39.7-5.35 42.12-3.68 44.55-2 47.75-2ZM76.7 0.5L76.7 0.5Q74.05 0.5 72.12-0.05 70.2-0.6 68.2-1.55L68.2-1.55 67.75-8.3 68.55-8.3 70.9-3.8Q72.34-2.7 73.87-2.27 75.4-1.85 77-1.85L77-1.85Q79.84-1.85 81.37-3.03 82.9-4.2 82.9-6.6L82.9-6.6Q82.9-8.4 81.95-9.38 81-10.35 79.17-11.18 77.34-12 74.7-13.25L74.7-13.25Q71.55-14.75 70.17-16.3 68.8-17.85 68.8-20.6L68.8-20.6Q68.8-22.7 70.05-24.5 71.3-26.3 73.32-27.43 75.34-28.55 77.8-28.55L77.8-28.55Q79.84-28.55 81.59-28.03 83.34-27.5 85.05-26.7L85.05-26.7 85.4-20.2 84.59-20.2 82.7-24.3Q81.5-25.3 80.4-25.75 79.3-26.2 77.84-26.2L77.84-26.2Q75.34-26.2 73.92-24.95 72.5-23.7 72.5-21.65L72.5-21.65Q72.5-20.3 73.15-19.4 73.8-18.5 75.17-17.73 76.55-16.95 78.75-15.9L78.75-15.9Q81.59-14.55 83.3-13.43 85-12.3 85.77-10.9 86.55-9.5 86.55-7.35L86.55-7.35Q86.55-5.05 85.27-3.28 84-1.5 81.77-0.5 79.55 0.5 76.7 0.5ZM111.24 0L98.04 0 98.04-0.8 102.49-2.45 102.49-25.5 94.79-25.5 92.34-19.65 91.54-19.65 91.54-28 117.74-28 117.74-19.65 116.94-19.65 114.44-25.5 106.74-25.5 106.74-2.45 111.24-0.8 111.24 0ZM134.44 0L123.49 0 123.49-0.8 126.79-2.45 126.79-25.55 123.49-27.2 123.49-28 134.44-28 134.44-27.2 131.04-25.55 131.04-2.45 134.44-0.8 134.44 0ZM151.54 0L140.94 0 140.94-0.8 144.49-2.45 144.49-25.6 140.94-27.2 140.94-28 147.94-28 164.89-7.45 164.89-25.6 160.64-27.2 160.64-28 171.14-28 171.14-27.2 167.64-25.6 167.64 0.2 165.69 0.2 147.24-22 147.24-2.6 151.54-0.8 151.54 0ZM192.19 0.5L192.19 0.5Q187.98 0.5 184.71-1.28 181.44-3.05 179.53-6.15 177.63-9.25 177.63-13.2L177.63-13.2Q177.63-16.5 178.83-19.28 180.03-22.05 182.13-24.13 184.23-26.2 187.01-27.35 189.78-28.5 192.94-28.5L192.94-28.5Q196.33-28.5 198.28-27.93 200.23-27.35 202.08-26.45L202.08-26.45 202.33-19.35 201.63-19.35 198.83-24.15Q197.03-25.4 195.76-25.88 194.48-26.35 192.83-26.35L192.83-26.35Q189.53-26.35 186.98-24.93 184.44-23.5 182.96-21 181.48-18.5 181.48-15.35L181.48-15.35Q181.48-11.1 183.06-8.13 184.63-5.15 187.28-3.58 189.94-2 193.19-2L193.19-2Q194.73-2 196.16-2.2 197.58-2.4 199.08-3.05L199.08-3.05 199.08-10 195.23-11.7 195.23-12.4 205.88-12.4 205.88-11.7 202.94-9.85 202.94-3.1Q201.63-2 199.81-1.2 197.98-0.4 195.98 0.05 193.98 0.5 192.19 0.5ZM220.33 0.5L220.33 0.5Q217.68 0.5 215.76-0.05 213.83-0.6 211.83-1.55L211.83-1.55 211.38-8.3 212.18-8.3 214.53-3.8Q215.98-2.7 217.51-2.27 219.03-1.85 220.63-1.85L220.63-1.85Q223.48-1.85 225.01-3.03 226.53-4.2 226.53-6.6L226.53-6.6Q226.53-8.4 225.58-9.38 224.63-10.35 222.81-11.18 220.98-12 218.33-13.25L218.33-13.25Q215.18-14.75 213.81-16.3 212.43-17.85 212.43-20.6L212.43-20.6Q212.43-22.7 213.68-24.5 214.93-26.3 216.96-27.43 218.98-28.55 221.43-28.55L221.43-28.55Q223.48-28.55 225.23-28.03 226.98-27.5 228.68-26.7L228.68-26.7 229.03-20.2 228.23-20.2 226.33-24.3Q225.13-25.3 224.03-25.75 222.93-26.2 221.48-26.2L221.48-26.2Q218.98-26.2 217.56-24.95 216.13-23.7 216.13-21.65L216.13-21.65Q216.13-20.3 216.78-19.4 217.43-18.5 218.81-17.73 220.18-16.95 222.38-15.9L222.38-15.9Q225.23-14.55 226.93-13.43 228.63-12.3 229.41-10.9 230.18-9.5 230.18-7.35L230.18-7.35Q230.18-5.05 228.91-3.28 227.63-1.5 225.41-0.5 223.18 0.5 220.33 0.5Z" opacity="1" transform="matrix(1,0,0,1,0,0)" fill="#ffffff" class="wordmark-text-0" data-fill-palette-color="primary" id="text-0"></path></svg></g></svg></g></svg></g></svg></g></svg></g></svg></g></svg></g><g><path d="M0 123.6c0-68.262 55.338-123.6 123.6-123.6 61.684 0 112.814 45.186 122.096 104.263l-1.428 0c-9.268-58.295-59.765-102.852-120.668-102.852-67.483 0-122.189 54.706-122.189 122.189 0 67.483 54.706 122.189 122.189 122.189 60.903 0 111.399-44.558 120.668-102.852h1.428c-9.282 59.077-60.412 104.263-122.096 104.263-68.262 0-123.6-55.338-123.6-123.6z" fill="#ffffff" stroke="transparent" data-fill-palette-color="tertiary"></path></g></svg></g><defs></defs></svg><rect width="395.52" height="247.2" fill="none" stroke="none" visibility="hidden"></rect></g></svg></g></svg>